<svg width="40" height="25" viewBox="0 0 40 25" fill="none" xmlns="http://www.w3.org/2000/svg">
<rect y="0.154537" width="40" height="24" rx="12" fill="#EE8130"/>
<path d="M8.816 16.1545V7.75454H14.24V8.99054H10.352V11.3425H13.496V12.5545H10.352V16.1545H8.816ZM15.0654 16.1545V7.75454H16.6014V16.1545H15.0654ZM17.8694 16.1545V7.75454H20.9534C21.6254 7.75454 22.1774 7.87054 22.6094 8.10254C23.0494 8.32654 23.3774 8.63454 23.5934 9.02654C23.8094 9.41054 23.9174 9.83854 23.9174 10.3105C23.9174 10.8225 23.7814 11.2905 23.5094 11.7145C23.2454 12.1385 22.8294 12.4465 22.2614 12.6385L24.0014 16.1545H22.2374L20.6774 12.8425H19.4054V16.1545H17.8694ZM19.4054 11.7145H20.8574C21.3694 11.7145 21.7454 11.5905 21.9854 11.3425C22.2254 11.0945 22.3454 10.7665 22.3454 10.3585C22.3454 9.95854 22.2254 9.63854 21.9854 9.39854C21.7534 9.15854 21.3734 9.03854 20.8454 9.03854H19.4054V11.7145ZM24.986 16.1545V7.75454H30.47V8.99054H26.522V11.2945H30.11V12.4945H26.522V14.9185H30.47V16.1545H24.986Z" fill="white"/>
</svg>
