<svg width="60" height="24" viewBox="0 0 60 24" fill="none" xmlns="http://www.w3.org/2000/svg">
<rect width="60" height="24" rx="12" fill="#A33EA1"/>
<path d="M8.816 16V7.6H11.924C12.596 7.6 13.152 7.712 13.592 7.936C14.032 8.16 14.36 8.468 14.576 8.86C14.792 9.252 14.9 9.692 14.9 10.18C14.9 10.644 14.796 11.072 14.588 11.464C14.38 11.848 14.056 12.16 13.616 12.4C13.176 12.632 12.612 12.748 11.924 12.748H10.352V16H8.816ZM10.352 11.5H11.828C12.364 11.5 12.748 11.384 12.98 11.152C13.22 10.912 13.34 10.588 13.34 10.18C13.34 9.764 13.22 9.44 12.98 9.208C12.748 8.968 12.364 8.848 11.828 8.848H10.352V11.5ZM19.6811 16.144C18.8411 16.144 18.1051 15.96 17.4731 15.592C16.8491 15.224 16.3571 14.716 15.9971 14.068C15.6451 13.412 15.4691 12.656 15.4691 11.8C15.4691 10.944 15.6451 10.192 15.9971 9.544C16.3571 8.888 16.8491 8.376 17.4731 8.008C18.1051 7.64 18.8411 7.456 19.6811 7.456C20.5131 7.456 21.2451 7.64 21.8771 8.008C22.5091 8.376 23.0011 8.888 23.3531 9.544C23.7051 10.192 23.8811 10.944 23.8811 11.8C23.8811 12.656 23.7051 13.412 23.3531 14.068C23.0011 14.716 22.5091 15.224 21.8771 15.592C21.2451 15.96 20.5131 16.144 19.6811 16.144ZM19.6811 14.764C20.4811 14.764 21.1171 14.5 21.5891 13.972C22.0691 13.444 22.3091 12.72 22.3091 11.8C22.3091 10.88 22.0691 10.156 21.5891 9.628C21.1171 9.1 20.4811 8.836 19.6811 8.836C18.8811 8.836 18.2411 9.1 17.7611 9.628C17.2811 10.156 17.0411 10.88 17.0411 11.8C17.0411 12.72 17.2811 13.444 17.7611 13.972C18.2411 14.5 18.8811 14.764 19.6811 14.764ZM24.8773 16V7.6H26.4133V16H24.8773ZM30.5493 16.144C29.9333 16.144 29.3893 16.04 28.9173 15.832C28.4453 15.616 28.0733 15.312 27.8013 14.92C27.5293 14.52 27.3893 14.036 27.3813 13.468H29.0013C29.0173 13.86 29.1573 14.192 29.4213 14.464C29.6933 14.728 30.0653 14.86 30.5373 14.86C30.9453 14.86 31.2693 14.764 31.5093 14.572C31.7493 14.372 31.8693 14.108 31.8693 13.78C31.8693 13.436 31.7613 13.168 31.5453 12.976C31.3373 12.784 31.0573 12.628 30.7053 12.508C30.3533 12.388 29.9773 12.26 29.5773 12.124C28.9293 11.9 28.4333 11.612 28.0893 11.26C27.7533 10.908 27.5853 10.44 27.5853 9.856C27.5773 9.36 27.6933 8.936 27.9333 8.584C28.1813 8.224 28.5173 7.948 28.9413 7.756C29.3653 7.556 29.8533 7.456 30.4053 7.456C30.9653 7.456 31.4573 7.556 31.8813 7.756C32.3133 7.956 32.6493 8.236 32.8893 8.596C33.1373 8.956 33.2693 9.384 33.2853 9.88H31.6413C31.6333 9.584 31.5173 9.324 31.2933 9.1C31.0773 8.868 30.7733 8.752 30.3813 8.752C30.0453 8.744 29.7613 8.828 29.5293 9.004C29.3053 9.172 29.1933 9.42 29.1933 9.748C29.1933 10.028 29.2813 10.252 29.4573 10.42C29.6333 10.58 29.8733 10.716 30.1773 10.828C30.4813 10.94 30.8293 11.06 31.2213 11.188C31.6373 11.332 32.0173 11.5 32.3613 11.692C32.7053 11.884 32.9813 12.14 33.1893 12.46C33.3973 12.772 33.5013 13.176 33.5013 13.672C33.5013 14.112 33.3893 14.52 33.1653 14.896C32.9413 15.272 32.6093 15.576 32.1693 15.808C31.7293 16.032 31.1893 16.144 30.5493 16.144ZM38.4175 16.144C37.5775 16.144 36.8415 15.96 36.2095 15.592C35.5855 15.224 35.0935 14.716 34.7335 14.068C34.3815 13.412 34.2055 12.656 34.2055 11.8C34.2055 10.944 34.3815 10.192 34.7335 9.544C35.0935 8.888 35.5855 8.376 36.2095 8.008C36.8415 7.64 37.5775 7.456 38.4175 7.456C39.2495 7.456 39.9815 7.64 40.6135 8.008C41.2455 8.376 41.7375 8.888 42.0895 9.544C42.4415 10.192 42.6175 10.944 42.6175 11.8C42.6175 12.656 42.4415 13.412 42.0895 14.068C41.7375 14.716 41.2455 15.224 40.6135 15.592C39.9815 15.96 39.2495 16.144 38.4175 16.144ZM38.4175 14.764C39.2175 14.764 39.8535 14.5 40.3255 13.972C40.8055 13.444 41.0455 12.72 41.0455 11.8C41.0455 10.88 40.8055 10.156 40.3255 9.628C39.8535 9.1 39.2175 8.836 38.4175 8.836C37.6175 8.836 36.9775 9.1 36.4975 9.628C36.0175 10.156 35.7775 10.88 35.7775 11.8C35.7775 12.72 36.0175 13.444 36.4975 13.972C36.9775 14.5 37.6175 14.764 38.4175 14.764ZM43.6137 16V7.6H45.1497L49.0977 13.516V7.6H50.6337V16H49.0977L45.1497 10.096V16H43.6137Z" fill="white"/>
</svg>
