<svg width="55" height="25" viewBox="0 0 55 25" fill="none" xmlns="http://www.w3.org/2000/svg">
<rect y="0.154537" width="55" height="24" rx="12" fill="#A98FF3"/>
<path d="M8.816 16.1545V7.75454H14.24V8.99054H10.352V11.3425H13.496V12.5545H10.352V16.1545H8.816ZM15.0654 16.1545V7.75454H16.6014V14.9545H20.3214V16.1545H15.0654ZM22.2914 16.1545V13.1665L19.4714 7.75454H21.2114L23.0714 11.6305L24.9194 7.75454H26.6354L23.8274 13.1665V16.1545H22.2914ZM27.2594 16.1545V7.75454H28.7954V16.1545H27.2594ZM30.0635 16.1545V7.75454H31.5995L35.5475 13.6705V7.75454H37.0835V16.1545H35.5475L31.5995 10.2505V16.1545H30.0635ZM42.0239 16.2985C41.2319 16.2985 40.5399 16.1185 39.9479 15.7585C39.3559 15.3985 38.8959 14.8985 38.5679 14.2585C38.2399 13.6105 38.0759 12.8585 38.0759 12.0025C38.0759 11.1385 38.2439 10.3785 38.5799 9.72254C38.9239 9.05854 39.4079 8.54254 40.0319 8.17454C40.6639 7.79854 41.4119 7.61054 42.2759 7.61054C43.2599 7.61054 44.0759 7.84654 44.7239 8.31854C45.3719 8.79054 45.7919 9.44254 45.9839 10.2745H44.2679C44.1399 9.88254 43.9079 9.57854 43.5719 9.36254C43.2359 9.13854 42.8039 9.02654 42.2759 9.02654C41.4359 9.02654 40.7879 9.29454 40.3319 9.83054C39.8759 10.3585 39.6479 11.0865 39.6479 12.0145C39.6479 12.9425 39.8719 13.6625 40.3199 14.1745C40.7759 14.6785 41.3919 14.9305 42.1679 14.9305C42.9279 14.9305 43.4999 14.7265 43.8839 14.3185C44.2759 13.9025 44.5119 13.3585 44.5919 12.6865H42.4679V11.5345H46.1399V16.1545H44.7239L44.6039 15.0505C44.3319 15.4505 43.9919 15.7585 43.5839 15.9745C43.1759 16.1905 42.6559 16.2985 42.0239 16.2985Z" fill="white"/>
</svg>
