<svg width="55" height="24" viewBox="0 0 55 24" fill="none" xmlns="http://www.w3.org/2000/svg">
<rect width="55" height="24" rx="12" fill="#7AC74C"/>
<path d="M12.488 16.144C11.696 16.144 11.004 15.964 10.412 15.604C9.82 15.244 9.36 14.744 9.032 14.104C8.704 13.456 8.54 12.704 8.54 11.848C8.54 10.984 8.708 10.224 9.044 9.568C9.388 8.904 9.872 8.388 10.496 8.02C11.128 7.644 11.876 7.456 12.74 7.456C13.724 7.456 14.54 7.692 15.188 8.164C15.836 8.636 16.256 9.288 16.448 10.12H14.732C14.604 9.728 14.372 9.424 14.036 9.208C13.7 8.984 13.268 8.872 12.74 8.872C11.9 8.872 11.252 9.14 10.796 9.676C10.34 10.204 10.112 10.932 10.112 11.86C10.112 12.788 10.336 13.508 10.784 14.02C11.24 14.524 11.856 14.776 12.632 14.776C13.392 14.776 13.964 14.572 14.348 14.164C14.74 13.748 14.976 13.204 15.056 12.532H12.932V11.38H16.604V16H15.188L15.068 14.896C14.796 15.296 14.456 15.604 14.048 15.82C13.64 16.036 13.12 16.144 12.488 16.144ZM17.7373 16V7.6H20.8213C21.4933 7.6 22.0453 7.716 22.4773 7.948C22.9173 8.172 23.2453 8.48 23.4613 8.872C23.6773 9.256 23.7853 9.684 23.7853 10.156C23.7853 10.668 23.6493 11.136 23.3773 11.56C23.1133 11.984 22.6973 12.292 22.1293 12.484L23.8693 16H22.1053L20.5453 12.688H19.2733V16H17.7373ZM19.2733 11.56H20.7253C21.2373 11.56 21.6133 11.436 21.8533 11.188C22.0933 10.94 22.2133 10.612 22.2133 10.204C22.2133 9.804 22.0933 9.484 21.8533 9.244C21.6213 9.004 21.2413 8.884 20.7133 8.884H19.2733V11.56ZM24.3138 16L27.3858 7.6H29.1138L32.1858 16H30.5538L29.8818 14.056H26.6058L25.9218 16H24.3138ZM27.0258 12.856H29.4618L28.2378 9.364L27.0258 12.856ZM35.7759 16.144C35.1599 16.144 34.6159 16.04 34.1439 15.832C33.6719 15.616 33.2999 15.312 33.0279 14.92C32.7559 14.52 32.6159 14.036 32.6079 13.468H34.2279C34.2439 13.86 34.3839 14.192 34.6479 14.464C34.9199 14.728 35.2919 14.86 35.7639 14.86C36.1719 14.86 36.4959 14.764 36.7359 14.572C36.9759 14.372 37.0959 14.108 37.0959 13.78C37.0959 13.436 36.9879 13.168 36.7719 12.976C36.5639 12.784 36.2839 12.628 35.9319 12.508C35.5799 12.388 35.2039 12.26 34.8039 12.124C34.1559 11.9 33.6599 11.612 33.3159 11.26C32.9799 10.908 32.8119 10.44 32.8119 9.856C32.8039 9.36 32.9199 8.936 33.1599 8.584C33.4079 8.224 33.7439 7.948 34.1679 7.756C34.5919 7.556 35.0799 7.456 35.6319 7.456C36.1919 7.456 36.6839 7.556 37.1079 7.756C37.5399 7.956 37.8759 8.236 38.1159 8.596C38.3639 8.956 38.4959 9.384 38.5119 9.88H36.8679C36.8599 9.584 36.7439 9.324 36.5199 9.1C36.3039 8.868 35.9999 8.752 35.6079 8.752C35.2719 8.744 34.9879 8.828 34.7559 9.004C34.5319 9.172 34.4199 9.42 34.4199 9.748C34.4199 10.028 34.5079 10.252 34.6839 10.42C34.8599 10.58 35.0999 10.716 35.4039 10.828C35.7079 10.94 36.0559 11.06 36.4479 11.188C36.8639 11.332 37.2439 11.5 37.5879 11.692C37.9319 11.884 38.2079 12.14 38.4159 12.46C38.6239 12.772 38.7279 13.176 38.7279 13.672C38.7279 14.112 38.6159 14.52 38.3919 14.896C38.1679 15.272 37.8359 15.576 37.3959 15.808C36.9559 16.032 36.4159 16.144 35.7759 16.144ZM42.576 16.144C41.96 16.144 41.416 16.04 40.944 15.832C40.472 15.616 40.1 15.312 39.828 14.92C39.556 14.52 39.416 14.036 39.408 13.468H41.028C41.044 13.86 41.184 14.192 41.448 14.464C41.72 14.728 42.092 14.86 42.564 14.86C42.972 14.86 43.296 14.764 43.536 14.572C43.776 14.372 43.896 14.108 43.896 13.78C43.896 13.436 43.788 13.168 43.572 12.976C43.364 12.784 43.084 12.628 42.732 12.508C42.38 12.388 42.004 12.26 41.604 12.124C40.956 11.9 40.46 11.612 40.116 11.26C39.78 10.908 39.612 10.44 39.612 9.856C39.604 9.36 39.72 8.936 39.96 8.584C40.208 8.224 40.544 7.948 40.968 7.756C41.392 7.556 41.88 7.456 42.432 7.456C42.992 7.456 43.484 7.556 43.908 7.756C44.34 7.956 44.676 8.236 44.916 8.596C45.164 8.956 45.296 9.384 45.312 9.88H43.668C43.66 9.584 43.544 9.324 43.32 9.1C43.104 8.868 42.8 8.752 42.408 8.752C42.072 8.744 41.788 8.828 41.556 9.004C41.332 9.172 41.22 9.42 41.22 9.748C41.22 10.028 41.308 10.252 41.484 10.42C41.66 10.58 41.9 10.716 42.204 10.828C42.508 10.94 42.856 11.06 43.248 11.188C43.664 11.332 44.044 11.5 44.388 11.692C44.732 11.884 45.008 12.14 45.216 12.46C45.424 12.772 45.528 13.176 45.528 13.672C45.528 14.112 45.416 14.52 45.192 14.896C44.968 15.272 44.636 15.576 44.196 15.808C43.756 16.032 43.216 16.144 42.576 16.144Z" fill="white"/>
</svg>
